<svg width="50" height="50" viewBox="0 0 50 50" fill="none" xmlns="http://www.w3.org/2000/svg">
<rect width="50" height="50" fill="#D6E4EA"/>
<path d="M23 16H27V13H23V16ZM25 25C22.4667 25 20.05 24.6063 17.75 23.8188C15.45 23.0313 13.2 22.15 11 21.175V19C11 18.175 11.3917 17.4688 12.175 16.8813C12.9583 16.2938 13.9 16 15 16H19V11.5C19 11.075 19.1917 10.7188 19.575 10.4313C19.9583 10.1438 20.4333 10 21 10H29C29.5667 10 30.0417 10.1438 30.425 10.4313C30.8083 10.7188 31 11.075 31 11.5V16H35C36.1 16 37.0417 16.2938 37.825 16.8813C38.6083 17.4688 39 18.175 39 19V21.175C36.8 22.15 34.55 23.0313 32.25 23.8188C29.95 24.6063 27.5333 25 25 25ZM15 38.5C13.9 38.5 12.9583 38.2063 12.175 37.6188C11.3917 37.0313 11 36.325 11 35.5V24.55C12.8667 25.4 14.7917 26.125 16.775 26.725C18.7583 27.325 20.8333 27.725 23 27.925V28C23 28.425 23.1917 28.7813 23.575 29.0688C23.9583 29.3563 24.4333 29.5 25 29.5C25.5667 29.5 26.0417 29.3563 26.425 29.0688C26.8083 28.7813 27 28.425 27 28V27.925C29.1667 27.725 31.2417 27.325 33.225 26.725C35.2083 26.125 37.1333 25.4 39 24.55V35.5C39 36.325 38.6083 37.0313 37.825 37.6188C37.0417 38.2063 36.1 38.5 35 38.5C35 38.925 34.8083 39.2813 34.425 39.5688C34.0417 39.8563 33.5667 40 33 40C32.4667 40 32.0917 39.8188 31.875 39.4563C31.6583 39.0938 31.3667 38.775 31 38.5H19C19 38.925 18.8083 39.2813 18.425 39.5688C18.0417 39.8563 17.5667 40 17 40C16.4667 40 16.0917 39.8188 15.875 39.4563C15.6583 39.0938 15.3667 38.775 15 38.5Z" fill="black" fill-opacity="0.06"/>
</svg>
