<svg width="101" height="35" viewBox="0 0 101 35" fill="none" xmlns="http://www.w3.org/2000/svg">
<rect x="0.5" y="0.5" width="100" height="34" rx="17" fill="white"/>
<rect x="0.5" y="0.5" width="100" height="34" rx="17" stroke="black"/>
<path d="M26.975 17.63C27.565 17.74 28.05 18.035 28.43 18.515C28.81 18.995 29 19.545 29 20.165C29 20.725 28.86 21.22 28.58 21.65C28.31 22.07 27.915 22.4 27.395 22.64C26.875 22.88 26.26 23 25.55 23H21.035V12.53H25.355C26.065 12.53 26.675 12.645 27.185 12.875C27.705 13.105 28.095 13.425 28.355 13.835C28.625 14.245 28.76 14.71 28.76 15.23C28.76 15.84 28.595 16.35 28.265 16.76C27.945 17.17 27.515 17.46 26.975 17.63ZM23.135 16.85H25.055C25.555 16.85 25.94 16.74 26.21 16.52C26.48 16.29 26.615 15.965 26.615 15.545C26.615 15.125 26.48 14.8 26.21 14.57C25.94 14.34 25.555 14.225 25.055 14.225H23.135V16.85ZM25.25 21.29C25.76 21.29 26.155 21.17 26.435 20.93C26.725 20.69 26.87 20.35 26.87 19.91C26.87 19.46 26.72 19.11 26.42 18.86C26.12 18.6 25.715 18.47 25.205 18.47H23.135V21.29H25.25ZM32.7437 12.53V19.01C32.7437 19.72 32.9287 20.265 33.2987 20.645C33.6687 21.015 34.1887 21.2 34.8587 21.2C35.5387 21.2 36.0637 21.015 36.4337 20.645C36.8037 20.265 36.9887 19.72 36.9887 19.01V12.53H39.1037V18.995C39.1037 19.885 38.9087 20.64 38.5187 21.26C38.1387 21.87 37.6237 22.33 36.9737 22.64C36.3337 22.95 35.6187 23.105 34.8287 23.105C34.0487 23.105 33.3387 22.95 32.6987 22.64C32.0687 22.33 31.5687 21.87 31.1987 21.26C30.8287 20.64 30.6437 19.885 30.6437 18.995V12.53H32.7437ZM48.2577 12.53V14.225H45.4677V23H43.3677V14.225H40.5777V12.53H48.2577ZM56.9149 12.53V14.225H54.1249V23H52.0249V14.225H49.2349V12.53H56.9149ZM63.3071 23.105C62.3271 23.105 61.4271 22.875 60.6071 22.415C59.7871 21.955 59.1371 21.32 58.6571 20.51C58.1771 19.69 57.9371 18.765 57.9371 17.735C57.9371 16.715 58.1771 15.8 58.6571 14.99C59.1371 14.17 59.7871 13.53 60.6071 13.07C61.4271 12.61 62.3271 12.38 63.3071 12.38C64.2971 12.38 65.1971 12.61 66.0071 13.07C66.8271 13.53 67.4721 14.17 67.9421 14.99C68.4221 15.8 68.6621 16.715 68.6621 17.735C68.6621 18.765 68.4221 19.69 67.9421 20.51C67.4721 21.32 66.8271 21.955 66.0071 22.415C65.1871 22.875 64.2871 23.105 63.3071 23.105ZM63.3071 21.23C63.9371 21.23 64.4921 21.09 64.9721 20.81C65.4521 20.52 65.8271 20.11 66.0971 19.58C66.3671 19.05 66.5021 18.435 66.5021 17.735C66.5021 17.035 66.3671 16.425 66.0971 15.905C65.8271 15.375 65.4521 14.97 64.9721 14.69C64.4921 14.41 63.9371 14.27 63.3071 14.27C62.6771 14.27 62.1171 14.41 61.6271 14.69C61.1471 14.97 60.7721 15.375 60.5021 15.905C60.2321 16.425 60.0971 17.035 60.0971 17.735C60.0971 18.435 60.2321 19.05 60.5021 19.58C60.7721 20.11 61.1471 20.52 61.6271 20.81C62.1171 21.09 62.6771 21.23 63.3071 21.23ZM79.1795 23H77.0795L72.3245 15.815V23H70.2245V12.515H72.3245L77.0795 19.715V12.515H79.1795V23Z" fill="black"/>
</svg>
