<svg width="150" height="28" viewBox="0 0 150 28" fill="none" xmlns="http://www.w3.org/2000/svg">
<g clip-path="url(#clip0_1_2)">
<path d="M17.8617 22.05C16.7417 23.2167 15.4583 24.4183 14 25.6667C7.78166 20.3583 4.66666 15.7733 4.66666 11.9C4.66666 6.08999 9.09999 2.33333 14 2.33333C18.6667 2.33333 22.9133 5.74 23.2983 11.0833H27.4167L22.1667 16.3333L16.9167 11.0833H20.965C20.5917 7.28 17.6517 4.66666 14 4.66666C10.0917 4.66666 6.99999 7.66499 6.99999 11.9C6.99999 14.63 9.27499 18.2467 14 22.5633C14.7467 21.875 15.435 21.21 16.065 20.5683C15.8667 20.1717 15.75 19.7283 15.75 19.2617C15.75 17.6517 17.0567 16.345 18.6667 16.345C20.2767 16.345 21.5833 17.6517 21.5833 19.2617C21.5833 20.8717 20.2767 22.1667 18.6667 22.1667C18.3867 22.1667 18.1183 22.1317 17.8617 22.05Z" fill="#080061"/>
</g>
<path d="M41.16 9.03V10.725H38.37V19.5H36.27V10.725H33.48V9.03H41.16ZM48.0922 19.5L45.7822 15.42H44.7922V19.5H42.6922V9.03H46.6222C47.4322 9.03 48.1222 9.175 48.6922 9.465C49.2622 9.745 49.6872 10.13 49.9672 10.62C50.2572 11.1 50.4022 11.64 50.4022 12.24C50.4022 12.93 50.2022 13.555 49.8022 14.115C49.4022 14.665 48.8072 15.045 48.0172 15.255L50.5222 19.5H48.0922ZM44.7922 13.845H46.5472C47.1172 13.845 47.5422 13.71 47.8222 13.44C48.1022 13.16 48.2422 12.775 48.2422 12.285C48.2422 11.805 48.1022 11.435 47.8222 11.175C47.5422 10.905 47.1172 10.77 46.5472 10.77H44.7922V13.845ZM58.7216 17.505H54.5516L53.8616 19.5H51.6566L55.4216 9.015H57.8666L61.6316 19.5H59.4116L58.7216 17.505ZM58.1516 15.825L56.6366 11.445L55.1216 15.825H58.1516ZM71.9939 19.5H69.8939L65.1389 12.315V19.5H63.0389V9.015H65.1389L69.8939 16.215V9.015H71.9939V19.5ZM77.6842 19.605C76.9542 19.605 76.2942 19.48 75.7042 19.23C75.1242 18.98 74.6642 18.62 74.3242 18.15C73.9842 17.68 73.8092 17.125 73.7992 16.485H76.0492C76.0792 16.915 76.2292 17.255 76.4992 17.505C76.7792 17.755 77.1592 17.88 77.6392 17.88C78.1292 17.88 78.5142 17.765 78.7942 17.535C79.0742 17.295 79.2142 16.985 79.2142 16.605C79.2142 16.295 79.1192 16.04 78.9292 15.84C78.7392 15.64 78.4992 15.485 78.2092 15.375C77.9292 15.255 77.5392 15.125 77.0392 14.985C76.3592 14.785 75.8042 14.59 75.3742 14.4C74.9542 14.2 74.5892 13.905 74.2792 13.515C73.9792 13.115 73.8292 12.585 73.8292 11.925C73.8292 11.305 73.9842 10.765 74.2942 10.305C74.6042 9.845 75.0392 9.495 75.5992 9.255C76.1592 9.005 76.7992 8.88 77.5192 8.88C78.5992 8.88 79.4742 9.145 80.1442 9.675C80.8242 10.195 81.1992 10.925 81.2692 11.865H78.9592C78.9392 11.505 78.7842 11.21 78.4942 10.98C78.2142 10.74 77.8392 10.62 77.3692 10.62C76.9592 10.62 76.6292 10.725 76.3792 10.935C76.1392 11.145 76.0192 11.45 76.0192 11.85C76.0192 12.13 76.1092 12.365 76.2892 12.555C76.4792 12.735 76.7092 12.885 76.9792 13.005C77.2592 13.115 77.6492 13.245 78.1492 13.395C78.8292 13.595 79.3842 13.795 79.8142 13.995C80.2442 14.195 80.6142 14.495 80.9242 14.895C81.2342 15.295 81.3892 15.82 81.3892 16.47C81.3892 17.03 81.2442 17.55 80.9542 18.03C80.6642 18.51 80.2392 18.895 79.6792 19.185C79.1192 19.465 78.4542 19.605 77.6842 19.605ZM97.2048 9.03L94.2798 19.5H91.8048L89.8398 12.045L87.7848 19.5L85.3248 19.515L82.5048 9.03H84.7548L86.5998 17.16L88.7298 9.03H91.0698L93.0798 17.115L94.9398 9.03H97.2048ZM103.436 19.605C102.456 19.605 101.556 19.375 100.736 18.915C99.916 18.455 99.266 17.82 98.786 17.01C98.306 16.19 98.066 15.265 98.066 14.235C98.066 13.215 98.306 12.3 98.786 11.49C99.266 10.67 99.916 10.03 100.736 9.57C101.556 9.11 102.456 8.88 103.436 8.88C104.426 8.88 105.326 9.11 106.136 9.57C106.956 10.03 107.601 10.67 108.071 11.49C108.551 12.3 108.791 13.215 108.791 14.235C108.791 15.265 108.551 16.19 108.071 17.01C107.601 17.82 106.956 18.455 106.136 18.915C105.316 19.375 104.416 19.605 103.436 19.605ZM103.436 17.73C104.066 17.73 104.621 17.59 105.101 17.31C105.581 17.02 105.956 16.61 106.226 16.08C106.496 15.55 106.631 14.935 106.631 14.235C106.631 13.535 106.496 12.925 106.226 12.405C105.956 11.875 105.581 11.47 105.101 11.19C104.621 10.91 104.066 10.77 103.436 10.77C102.806 10.77 102.246 10.91 101.756 11.19C101.276 11.47 100.901 11.875 100.631 12.405C100.361 12.925 100.226 13.535 100.226 14.235C100.226 14.935 100.361 15.55 100.631 16.08C100.901 16.61 101.276 17.02 101.756 17.31C102.246 17.59 102.806 17.73 103.436 17.73ZM115.753 19.5L113.443 15.42H112.453V19.5H110.353V9.03H114.283C115.093 9.03 115.783 9.175 116.353 9.465C116.923 9.745 117.348 10.13 117.628 10.62C117.918 11.1 118.063 11.64 118.063 12.24C118.063 12.93 117.863 13.555 117.463 14.115C117.063 14.665 116.468 15.045 115.678 15.255L118.183 19.5H115.753ZM112.453 13.845H114.208C114.778 13.845 115.203 13.71 115.483 13.44C115.763 13.16 115.903 12.775 115.903 12.285C115.903 11.805 115.763 11.435 115.483 11.175C115.203 10.905 114.778 10.77 114.208 10.77H112.453V13.845ZM122.063 17.835H125.513V19.5H119.963V9.03H122.063V17.835ZM130.508 9.03C131.608 9.03 132.573 9.245 133.403 9.675C134.243 10.105 134.888 10.72 135.338 11.52C135.798 12.31 136.028 13.23 136.028 14.28C136.028 15.33 135.798 16.25 135.338 17.04C134.888 17.82 134.243 18.425 133.403 18.855C132.573 19.285 131.608 19.5 130.508 19.5H126.848V9.03H130.508ZM130.433 17.715C131.533 17.715 132.383 17.415 132.983 16.815C133.583 16.215 133.883 15.37 133.883 14.28C133.883 13.19 133.583 12.34 132.983 11.73C132.383 11.11 131.533 10.8 130.433 10.8H128.948V17.715H130.433Z" fill="#080061"/>
<defs>
<clipPath id="clip0_1_2">
<rect width="28" height="28" fill="white"/>
</clipPath>
</defs>
</svg>
